<?xml version="1.0" encoding="UTF-8"?>
<svg version="1.1" xmlns="http://www.w3.org/2000/svg" width="1280" height="458">
<path d="M0 0 C0.69448242 0.20890869 1.38896484 0.41781738 2.10449219 0.63305664 C5.62711324 1.76705701 8.2421295 2.64710657 10.5 5.625 C10.85644531 7.89892578 10.85644531 7.89892578 10.828125 10.5703125 C10.82361328 11.55773437 10.81910156 12.54515625 10.81445312 13.5625 C10.79318359 14.614375 10.77191406 15.66625 10.75 16.75 C10.73904297 17.81992188 10.72808594 18.88984375 10.71679688 19.9921875 C10.59442161 28.88833733 10.17491373 37.75470524 9.5 46.625 C10.51984985 46.60977295 10.51984985 46.60977295 11.56030273 46.59423828 C19.55908865 46.52905067 27.50643455 46.86025119 35.48510742 47.36962891 C37.59053454 47.50175937 39.69648398 47.62009193 41.80273438 47.73828125 C43.15109394 47.8220797 44.4994037 47.90668446 45.84765625 47.9921875 C47.05429932 48.06550293 48.26094238 48.13881836 49.50415039 48.21435547 C52.5 48.625 52.5 48.625 55.5 50.625 C57.46189799 56.23042283 55.57762259 61.30738447 53.5 66.625 C51.5 69.625 51.5 69.625 48.5 70.625 C47.16471193 70.71044291 45.82556112 70.74274625 44.48754883 70.73852539 C43.68694534 70.73844986 42.88634186 70.73837433 42.06147766 70.73829651 C41.20201035 70.73313522 40.34254303 70.72797394 39.45703125 70.72265625 C38.5734343 70.7212413 37.68983734 70.71982635 36.77946472 70.71836853 C33.95710872 70.71277069 31.13483203 70.70021861 28.3125 70.6875 C26.39908969 70.68248472 24.48567813 70.67792186 22.57226562 70.67382812 C17.88147986 70.66280197 13.19075337 70.64553883 8.5 70.625 C8.51160156 71.57632813 8.52320313 72.52765625 8.53515625 73.5078125 C8.61213646 83.2678247 8.37698338 92.99665339 8.015625 102.75 C7.48795757 117.37056385 7.28124325 131.97855325 7.25976562 146.60839844 C7.25418269 149.99847924 7.22982513 153.38817824 7.20179367 156.77813721 C7.17852859 160.10208227 7.17671975 163.42597804 7.171875 166.75 C7.1533548 168.53470703 7.1533548 168.53470703 7.13446045 170.35546875 C7.1640049 181.61170645 8.56932908 192.86808978 14.5 202.625 C17.47463337 204.11231668 19.17278843 204.0563052 22.5 203.625 C33.75044383 197.85144566 39.67357197 185.04037831 43.84423828 173.67773438 C45.46551524 168.60264255 45.87026715 163.38315379 46.29199219 158.09863281 C48.37492502 133.32835645 50.85920181 106.79408516 68.5 87.625 C69.304375 86.738125 70.10875 85.85125 70.9375 84.9375 C80.02718343 76.73461495 88.06386879 72.6589785 100.5 72.625 C111.73953716 73.34709317 120.04891188 78.38958681 127.5 86.625 C128.180625 85.201875 128.180625 85.201875 128.875 83.75 C130.5 80.625 130.5 80.625 132.5 78.625 C142.14128107 77.49690453 151.48800869 78.52933523 159.6262207 84.07348633 C162.55372677 88.05985322 161.94225449 91.90293813 161.78515625 96.71484375 C161.76824234 97.72780014 161.75132843 98.74075653 161.73390198 99.78440857 C161.67480319 103.06529101 161.58771375 106.34476984 161.5 109.625 C161.45623756 111.79048914 161.41440272 113.95601811 161.37451172 116.12158203 C161.22469281 123.94318003 161.04907663 131.76417 160.85180664 139.5847168 C160.560184 151.32147128 160.37279165 163.01712608 160.890625 174.75 C160.92888901 175.62672867 160.96715302 176.50345734 161.00657654 177.40675354 C161.52761503 187.38579579 162.23543875 198.46208685 168.5 206.625 C171.13545362 208.80606507 172.46613426 208.62561574 175.9375 208.5625 C181.06621619 207.21283784 183.14139543 204.88146498 185.84765625 200.38671875 C189.22214656 194.06077918 192.09880348 187.65586559 191.02075195 180.39892578 C186.9688064 151.03419327 190.72630547 114.85211454 209.0625 90.5 C210.18619205 89.18902594 211.33107326 87.89580568 212.5 86.625 C213.04140625 85.99335938 213.5828125 85.36171875 214.140625 84.7109375 C220.80844034 77.38880383 229.6752807 73.462419 239.5 72.625 C251.65592142 72.48547723 259.85503119 76.39555235 268.56640625 84.69921875 C269.54494446 85.67380327 270.52343663 86.64843663 271.5 87.625 C271.768125 86.51125 272.03625 85.3975 272.3125 84.25 C273.5 80.625 273.5 80.625 276.5 78.625 C285.26120368 77.54087983 293.52567896 78.84036192 301.5 82.625 C303.46982166 84.20785471 304.39263222 85.05884842 304.86914349 87.57149792 C304.86637811 88.31354127 304.86361273 89.05558462 304.86076355 89.82011414 C304.86488754 90.67406769 304.86901154 91.52802124 304.8732605 92.40785217 C304.86247467 93.34149094 304.85168884 94.2751297 304.84057617 95.23706055 C304.84101425 96.22260925 304.84145233 97.20815796 304.84190369 98.22357178 C304.83981093 101.48648782 304.81645653 104.74889229 304.79296875 108.01171875 C304.78737454 110.27187316 304.78310362 112.53203121 304.78010559 114.79219055 C304.7686431 120.74514789 304.73916366 126.69788615 304.70599365 132.65075684 C304.67532312 138.72352128 304.6616067 144.79632108 304.64648438 150.86914062 C304.61429545 162.78785675 304.56308201 174.70641017 304.5 186.625 C306.59455185 183.26603974 308.68473335 179.9043805 310.77416992 176.54223633 C311.36393364 175.59657051 311.95369736 174.65090469 312.5613327 173.67658234 C316.68403876 167.03621524 320.49727088 160.39737061 323.8125 153.3125 C324.29614014 152.29124023 324.77978027 151.26998047 325.27807617 150.21777344 C328.72320611 142.75037286 331.66647892 135.15975683 334.3125 127.375 C334.65643799 126.36912842 335.00037598 125.36325684 335.35473633 124.3269043 C335.65661865 123.38886963 335.95850098 122.45083496 336.26953125 121.484375 C336.53354736 120.66420898 336.79756348 119.84404297 337.06958008 118.99902344 C337.57889386 116.18985315 337.3318987 114.34879286 336.5 111.625 C334.87873325 109.58802383 333.21140469 107.58685416 331.5 105.625 C328.25041716 100.47703543 328.96749766 94.47578518 329.5 88.625 C331.16075464 81.4250817 334.6079835 76.08628401 340.5 71.625 C345.92046259 68.7256828 352.49757061 68.9580634 358.5 69.625 C363.09247877 71.80038468 365.30928494 74.09248609 367.5 78.625 C367.79296875 82.17578125 367.79296875 82.17578125 367.6875 85.9375 C367.66042969 87.19175781 367.63335938 88.44601563 367.60546875 89.73828125 C367.55326172 91.16720703 367.55326172 91.16720703 367.5 92.625 C368.28012451 92.47353516 369.06024902 92.32207031 369.86401367 92.16601562 C373.46958829 91.47330196 377.07839862 90.79908759 380.6875 90.125 C381.91404297 89.88652344 383.14058594 89.64804688 384.40429688 89.40234375 C403.50899754 85.87377107 403.50899754 85.87377107 412.0625 88.875 C415.67939201 91.47174298 418.07209797 93.3412939 419.5 97.625 C420.40588202 108.10590311 418.32881964 117.79696028 416.0625 127.9375 C415.5698638 130.19228593 415.08109163 132.44784616 414.59544373 134.70414734 C414.29529655 136.09322749 413.99069236 137.481356 413.68055725 138.86824036 C409.3833146 158.44597549 407.50093884 185.95984116 418.5 203.625 C420.82471914 206.75134643 422.05607075 207.49098362 425.8125 208.625 C430.33533387 208.625 433.2553445 207.72252315 436.5 204.625 C438.59324168 201.4437145 440.07700475 198.14939521 441.5 194.625 C441.974375 193.5525 442.44875 192.48 442.9375 191.375 C443.48807985 187.70446765 443.25105965 185.54522505 442.625 181.9375 C437.82881599 152.56479141 441.35935961 118.23502299 458.2578125 93 C459.92527228 90.78669016 461.66016926 88.69636001 463.5 86.625 C464.31404297 85.67173828 464.31404297 85.67173828 465.14453125 84.69921875 C471.45913979 77.79307779 480.15336875 73.47331661 489.5 72.625 C502.15291829 72.48765489 510.46449379 76.02329284 519.56640625 84.69921875 C520.54494446 85.67380327 521.52343663 86.64843663 522.5 87.625 C522.78875 86.51125 523.0775 85.3975 523.375 84.25 C524.5 80.625 524.5 80.625 526.5 78.625 C535.88403466 77.65380286 544.84764691 78.40172722 553.10397339 83.10992432 C556.14138719 86.29825517 556.07550465 87.9638122 556.08877563 92.22761536 C556.06608612 93.11382065 556.04339661 94.00002594 556.02001953 94.91308594 C556.01388641 96.3238163 556.01388641 96.3238163 556.00762939 97.76304626 C555.98882502 100.87913401 555.93526404 103.99368791 555.8828125 107.109375 C555.86585379 109.28491357 555.85156088 111.46047441 555.83981323 113.63604736 C555.80367627 119.37759592 555.74024574 125.11847794 555.66845703 130.85968018 C555.55539869 140.00517914 555.4695813 149.15070153 555.41006088 158.29669952 C555.38344259 161.47171869 555.33678304 164.64598906 555.2883606 167.82073975 C554.65794561 188.32619001 554.65794561 188.32619001 562.5 206.625 C565.36728634 208.94819869 565.36728634 208.94819869 568.875 208.5625 C575.09291971 206.95441732 578.06424909 202.34310956 581.23828125 197.06640625 C586.00933546 187.83449021 589.71717668 177.71309938 589.80297852 167.27880859 C589.81141785 166.58000076 589.81985718 165.88119293 589.82855225 165.16120911 C589.85419465 162.86527743 589.86645725 160.56947523 589.87890625 158.2734375 C589.8951228 156.65222208 589.91230697 155.03101607 589.93040466 153.40982056 C589.97599626 149.14034502 590.01080032 144.87085535 590.04260254 140.60125732 C590.14191293 127.61809953 590.27005255 114.63503804 590.46897125 101.65299988 C590.49802755 99.75391698 590.52505801 97.85480339 590.55194092 95.95568848 C590.60387175 92.94058327 590.68294151 89.92809125 590.77734375 86.9140625 C590.7897963 86.08474213 590.80224884 85.25542175 590.81507874 84.40097046 C591.02948737 79.12282647 591.02948737 79.12282647 593.39672852 76.61816406 C599.82144487 73.58441524 609.29242667 77.09782266 615.87109375 78.61328125 C619.21471711 79.90005458 620.39636828 80.67114475 622.5 83.625 C623.13233848 87.31934319 623.10500229 90.99327027 623.109375 94.734375 C623.13417938 96.35729462 623.13417938 96.35729462 623.15948486 98.01300049 C623.20805101 101.46705758 623.22935566 104.92067411 623.25 108.375 C623.27815236 110.71747018 623.30807874 113.05991977 623.33984375 115.40234375 C623.41381224 121.14314896 623.46540427 126.88382982 623.5 132.625 C623.85715088 131.54718262 624.21430176 130.46936523 624.58227539 129.35888672 C625.93416729 125.28857537 627.29999517 121.22304696 628.66967773 117.15869141 C629.25605965 115.4125336 629.83885783 113.66516742 630.41772461 111.91650391 C639.99122146 83.02194979 639.99122146 83.02194979 647.5 76.625 C655.40962618 73.98845794 663.03695601 76.48169822 670.5 79.625 C674.43336519 82.17082839 677.4609938 84.95355525 679.9375 88.9375 C681.91643549 98.392414 681.76708031 108.19204624 682 117.8125 C682.06515189 136.34707849 682.06515189 136.34707849 684.5 154.625 C684.67837402 153.7263623 684.67837402 153.7263623 684.86035156 152.80957031 C687.83751955 138.17593983 691.74406047 124.03919569 696.4375 109.875 C696.68399292 109.11981079 696.93048584 108.36462158 697.18444824 107.58654785 C705.98134037 80.76134902 705.98134037 80.76134902 712.57373047 76.75878906 C720.23246477 73.79139693 728.19786529 77.20826315 735.43359375 80.1640625 C740.97350378 82.80345913 746.20723133 85.70083439 748.5 91.625 C748.67000541 94.17356155 748.73251743 96.60747539 748.6953125 99.15307617 C748.69239197 99.90663895 748.68947144 100.66020172 748.6864624 101.43659973 C748.67885828 103.07242136 748.66663332 104.70822655 748.65032959 106.3439846 C748.62469277 108.94918982 748.61173956 111.55418978 748.60205078 114.15950012 C748.57536126 120.6417389 748.5274032 127.123787 748.47924805 133.605896 C748.43938403 139.06834705 748.40824932 144.53071986 748.38812256 149.99328041 C748.37537697 152.53042817 748.35034679 155.06724894 748.32470703 157.60429382 C747.87069372 182.21712598 747.87069372 182.21712598 757 204.3125 C759.83882836 207.06470379 759.83882836 207.06470379 763.5 207.625 C767.03002254 206.83074493 768.28327256 205.90776159 770.5 203.015625 C772.61810216 199.42477993 773.87551941 195.91606275 775 191.9375 C775.41849689 190.52672625 775.83908398 189.11657092 776.26171875 187.70703125 C776.46716309 187.01818848 776.67260742 186.3293457 776.88427734 185.61962891 C778.24089469 181.22487724 779.86961343 176.92411989 781.5 172.625 C784.3125 171.9375 784.3125 171.9375 787.5 171.625 C789.58130637 173.13215289 790.35613218 174.33726437 791.5 176.625 C793.40140415 190.58941083 788.12409989 207.06102995 780.5 218.625 C774.93386662 225.22905953 768.84601617 228.84154121 760.28515625 229.8984375 C751.72100107 230.28976972 743.98461791 227.78069377 737.375 222.34375 C720.6492785 207.01183863 718.66539868 184.5179846 717.58728027 162.98760986 C717.26983373 154.39457606 717.40138059 145.78460176 717.4375 137.1875 C717.44252803 135.0878917 717.44708862 132.98828223 717.45117188 130.88867188 C717.46206733 125.80075168 717.47925915 120.71288919 717.5 115.625 C716.22924945 118.76409101 714.9638126 121.90529924 713.69921875 125.046875 C713.34436401 125.92327637 712.98950928 126.79967773 712.62390137 127.70263672 C702.72726848 152.32768765 696.6917803 178.66799043 695.92871094 205.23168945 C695.65185386 212.85241906 695.65185386 212.85241906 693.5 215.625 C688.64756728 219.05667539 682.13570348 218.16430177 676.5 217.625 C670.59882298 215.97116695 666.92230649 212.70956964 663.5 207.625 C660.95328386 201.62343639 659.55181535 195.7961453 658.5 189.375 C658.25008301 187.85132813 658.25008301 187.85132813 657.99511719 186.296875 C654.39655319 162.95781364 652.8753742 139.22197451 653.5 115.625 C649.63908677 118.94658388 647.69551141 122.79023406 645.6875 127.375 C645.17473511 128.53962769 645.17473511 128.53962769 644.65161133 129.7277832 C635.95649374 150.23445448 630.96513448 172.45093931 630.03515625 194.67578125 C629.95674236 196.36004294 629.87795564 198.04428731 629.79882812 199.72851562 C629.67870598 202.34629046 629.56137319 204.96409408 629.45043945 207.58227539 C629.34090989 210.13471823 629.22014866 212.68643212 629.09765625 215.23828125 C629.06736832 216.02060623 629.03708038 216.80293121 629.00587463 217.60896301 C628.64627672 224.78309209 628.64627672 224.78309209 626.5 227.625 C616.90324975 231.17935194 605.86310387 230.74680116 596.5 226.625 C594.296875 225.46875 594.296875 225.46875 592.5 223.625 C591.671875 220.26953125 591.671875 220.26953125 591.25 216.4375 C591.02570313 214.52904297 591.02570313 214.52904297 590.796875 212.58203125 C590.69890625 211.60621094 590.6009375 210.63039063 590.5 209.625 C589.88125 210.71167969 589.88125 210.71167969 589.25 211.8203125 C584.02041436 220.57519918 578.75689285 226.28654452 568.78125 229.15625 C560.64382734 230.82832315 552.49838247 229.55478013 545.30078125 225.3359375 C536.36431049 218.96976595 532.28992606 211.83767687 528.5 201.625 C528.18289063 202.15867187 527.86578125 202.69234375 527.5390625 203.2421875 C519.82575096 215.55791697 509.20344166 225.37577466 494.8125 229.0625 C493.38137228 229.29366219 491.94255949 229.48152663 490.5 229.625 C489.73558594 229.70621094 488.97117187 229.78742188 488.18359375 229.87109375 C478.08703559 230.40590341 468.27855698 227.25239843 460.578125 220.70703125 C456.84959749 216.97149523 453.63148403 212.86572905 450.5 208.625 C450.02691406 209.33785156 449.55382812 210.05070313 449.06640625 210.78515625 C442.26877101 220.6304642 435.55741611 227.38691775 423.5 229.625 C413.63335651 230.68214037 404.26715872 226.44719099 396.5 220.625 C384.00193833 209.1994515 379.13718798 192.48760144 378.37597656 175.92675781 C377.80824518 154.66837176 380.34104484 134.4197758 384.5 113.625 C376.91 113.625 369.32 113.625 361.5 113.625 C360.015 118.575 360.015 118.575 358.5 123.625 C347.13828296 154.83016155 329.28001057 188.84498943 305.5 212.625 C305.18932365 214.98261129 305.18932365 214.98261129 305.22875977 217.7512207 C305.21857315 218.82447098 305.20838654 219.89772125 305.19789124 221.00349426 C305.19575119 222.17409897 305.19361115 223.34470367 305.19140625 224.55078125 C305.16619304 227.04622576 305.14079601 229.54166841 305.11523438 232.03710938 C305.08680102 235.95726773 305.06279273 239.87739246 305.04370117 243.79760742 C304.68943299 304.67333877 304.68943299 304.67333877 284.85546875 325.37109375 C272.91745069 336.79437139 262.3508343 340.05327985 246.21875 339.83984375 C237.16821868 339.55345705 230.08603563 336.40027343 222.5 331.625 C221.613125 331.068125 220.72625 330.51125 219.8125 329.9375 C212.33983928 322.46483928 209.22812413 313.31116161 209.125 302.875 C209.21311944 282.76057817 223.19411424 267.67807641 236.72070312 254.1796875 C237.65849609 253.25414062 238.59628906 252.32859375 239.5625 251.375 C240.51407774 250.42488548 241.46525069 249.47436538 242.41601562 248.5234375 C247.61861077 243.35342646 252.91622999 238.37891492 258.5 233.625 C261.19073699 231.31763379 263.85310717 228.98247115 266.5 226.625 C267.17933594 226.0475 267.85867188 225.47 268.55859375 224.875 C272.66238498 221.17673988 272.66238498 221.17673988 274 215.875 C273.59316411 212.62399824 273.59316411 212.62399824 272.5 209.625 C272.13390625 210.1096875 271.7678125 210.594375 271.390625 211.09375 C264.4205269 219.72339527 255.3348257 226.00658379 244.5 228.625 C243.695625 228.851875 242.89125 229.07875 242.0625 229.3125 C231.19958814 230.63724535 220.64404925 229.04429928 211.625 222.4375 C207.83676796 219.21436335 204.83146364 215.55545006 201.91015625 211.54296875 C200.50131287 209.52575525 200.50131287 209.52575525 198.5 207.625 C198.11328125 208.21667969 197.7265625 208.80835938 197.328125 209.41796875 C195.73666132 211.83273913 194.11911292 214.22871288 192.5 216.625 C191.9225 217.511875 191.345 218.39875 190.75 219.3125 C184.24301699 226.00023254 176.26507222 229.09119702 167.125 229.9375 C157.66857374 229.12229084 149.4540308 225.65626513 142.74609375 218.84375 C138.53343312 213.69142321 136.46834873 207.92371594 134.5 201.625 C134.09910156 202.24246094 133.69820312 202.85992187 133.28515625 203.49609375 C124.82465797 216.10050955 115.03307883 224.70084701 100.3125 229.0625 C88.58112486 230.79335863 78.43082728 229.43699741 68.66015625 222.40625 C59.34777551 214.72732483 54.11385169 205.02383125 50.5 193.625 C48.81806478 196.14790282 47.37490296 198.69531157 45.93725586 201.359375 C41.94463935 208.66015948 37.46585728 214.75641214 31.5 220.625 C30.8915625 221.23214844 30.283125 221.83929688 29.65625 222.46484375 C24.52567532 227.23394612 19.16354494 229.70259669 12.125 230 C4.50690889 229.71053885 -2.53223725 227.3992102 -8.5 222.625 C-9.05171875 222.18929687 -9.6034375 221.75359375 -10.171875 221.3046875 C-22.47628065 210.47027721 -25.15783404 192.79096808 -28.5 177.625 C-29.03367187 178.70136719 -29.56734375 179.77773438 -30.1171875 180.88671875 C-40.97071765 202.33483321 -54.898549 219.72827391 -78.5 227.625 C-85.05903152 229.49293646 -91.32427776 229.97941324 -98.125 229.9375 C-99.08776855 229.93186035 -100.05053711 229.9262207 -101.04248047 229.92041016 C-114.41968424 229.69496421 -128.32185185 227.73220018 -138.796875 218.62890625 C-140.5 216.625 -140.5 216.625 -141.0625 213.5 C-139.96426571 205.93438597 -136.36125507 199.56079375 -130.5 194.625 C-127.5 192.625 -127.5 192.625 -124.22265625 192.72265625 C-120.06399796 193.7306836 -117.26337132 195.4988911 -113.9375 198.0625 C-108.66075659 202.06271387 -103.80133122 205.23783223 -96.9375 204.5625 C-93.63410598 204.0739308 -92.43862666 203.5809713 -89.625 201.5625 C-85.17773644 195.41481214 -83.42467355 189.18894398 -84.5 181.625 C-88.48931237 165.2165783 -102.79311008 152.91429291 -115.5 142.625 C-121.3477909 151.80434486 -126.98934476 161.0939729 -132.51419067 170.47109985 C-149.06790589 198.56147898 -149.06790589 198.56147898 -157.5 208.625 C-158.17546875 209.44613281 -158.8509375 210.26726562 -159.546875 211.11328125 C-167.82240707 220.7827416 -177.08094319 228.63352034 -190.0625 230 C-195.88241732 229.36509993 -199.96811341 228.08725538 -204.25 224 C-214.43405198 210.07836666 -213.70281898 191.55247482 -213.6875 175.125 C-213.6882251 174.33083679 -213.6889502 173.53667358 -213.68969727 172.71844482 C-213.68742347 149.6695566 -212.56006487 126.64475968 -211.5 103.625 C-240.11717681 132.12485724 -255.88988009 181.60146683 -259.26293945 221.03051758 C-259.50390625 223.16015625 -259.50390625 223.16015625 -260.5 226.625 C-266.42528398 230.87775702 -272.91067402 230.17480278 -279.84765625 229.34375 C-283.16193937 228.69947814 -285.2888474 227.81332529 -287.8125 225.5625 C-292.50914596 217.38685702 -292.93850426 209.65955369 -292.90405273 200.3659668 C-292.91091599 199.06409927 -292.91777924 197.76223175 -292.92485046 196.4209137 C-292.94268198 192.87576409 -292.94163391 189.33086329 -292.93590808 185.78568244 C-292.93280507 182.82059334 -292.9389202 179.85555127 -292.94494683 176.8904689 C-292.95895424 169.89853724 -292.95745927 162.90672791 -292.94604492 155.91479492 C-292.93453594 148.70558634 -292.94869424 141.49674857 -292.9754414 134.28758878 C-292.99758381 128.08694489 -293.00424003 121.88641757 -292.99836498 115.68573695 C-292.99499447 111.98676292 -292.99741794 108.28802722 -293.01461601 104.58908653 C-293.03292945 100.47150406 -293.0189135 96.35464769 -293.00170898 92.23706055 C-293.01137695 91.01258209 -293.02104492 89.78810364 -293.03100586 88.52651978 C-293.02117172 87.40653091 -293.01133759 86.28654205 -293.00120544 85.13261414 C-293.00099616 84.1598286 -293.00078688 83.18704306 -293.00057125 82.18477917 C-292.35258182 78.8711453 -291.13346679 77.67697638 -288.5 75.625 C-279.64986513 74.36069502 -270.01995673 78.16872935 -262.5 82.625 C-261.39864455 85.92906635 -261.37963937 88.36143693 -261.38647461 91.84057617 C-261.38655014 93.1216777 -261.38662567 94.40277924 -261.38670349 95.72270203 C-261.39181013 97.12112466 -261.39702613 98.5195469 -261.40234375 99.91796875 C-261.40420911 101.34857636 -261.40563246 102.77918461 -261.40663147 104.20979309 C-261.41044733 107.97286751 -261.42026968 111.73590325 -261.43133545 115.4989624 C-261.44156957 119.33979774 -261.44613338 123.18063933 -261.45117188 127.02148438 C-261.46189278 134.5560072 -261.47895804 142.09049818 -261.5 149.625 C-261.223909 148.86731323 -260.94781799 148.10962646 -260.6633606 147.32897949 C-259.38652777 143.83235943 -258.1034572 140.33805849 -256.8203125 136.84375 C-256.38630127 135.65233398 -255.95229004 134.46091797 -255.50512695 133.23339844 C-249.9440998 118.12224774 -243.89177654 103.09965985 -233.5 90.625 C-233.00113281 89.96628906 -232.50226563 89.30757813 -231.98828125 88.62890625 C-226.78429202 81.99916654 -219.86942431 77.14671351 -211.5 75.625 C-200.9461861 74.37285259 -191.97017189 79.92491317 -183.55859375 85.78125 C-180.44718425 88.56793935 -178.68472516 91.19502479 -178.14355469 95.38427734 C-178.15290039 96.3995752 -178.16224609 97.41487305 -178.171875 98.4609375 C-178.17646729 99.64743896 -178.18105957 100.83394043 -178.18579102 102.05639648 C-178.20697998 103.35778564 -178.22816895 104.6591748 -178.25 106 C-178.26138849 107.38548979 -178.2716913 108.77098886 -178.28100586 110.15649414 C-178.35664894 118.97176584 -178.56442551 127.78462488 -178.76953125 136.59765625 C-178.79306671 137.62673096 -178.81660217 138.65580566 -178.84085083 139.71606445 C-178.95880194 144.82399022 -179.08590696 149.9313575 -179.23144531 155.03857422 C-179.93822651 176.52048217 -179.93822651 176.52048217 -176.5 197.625 C-171.69034516 197.20061869 -168.8285046 194.92024067 -165.5 191.625 C-163.66434434 189.34134019 -162.11019895 186.92304401 -160.5625 184.4375 C-160.10431885 183.71481934 -159.6461377 182.99213867 -159.17407227 182.24755859 C-152.9153895 172.25557208 -147.07604155 162.01671939 -141.29931641 151.74121094 C-139.6295452 148.84935752 -137.87688942 146.03680955 -136.07421875 143.2265625 C-131.95355282 136.78977306 -131.95355282 136.78977306 -129.5 129.625 C-130.53896484 125.5372695 -132.28524447 122.49849984 -134.57421875 119.03125 C-138.3144693 112.41563442 -137.52845306 104.98994613 -135.828125 97.7734375 C-132.33693949 87.88174523 -125.66640623 80.56449452 -116.5 75.625 C-108.79411091 72.16099623 -100.46727912 71.6549492 -92.5 74.625 C-89.72960315 76.47193124 -87.98437105 77.6562579 -86.5 80.625 C-85.1092214 93.93673798 -89.60285101 103.35269449 -96.94921875 114.15234375 C-98.47617303 116.58700888 -99.47038671 118.95090027 -100.5 121.625 C-99.61646851 122.29704468 -99.61646851 122.29704468 -98.71508789 122.98266602 C-95.99718073 125.05044787 -93.27983775 127.11896992 -90.5625 129.1875 C-89.63630859 129.89197266 -88.71011719 130.59644531 -87.75585938 131.32226562 C-82.60704292 135.24259254 -77.47642958 139.18381371 -72.37890625 143.1706543 C-70.751018 144.43070242 -69.09647019 145.65616476 -67.4375 146.875 C-59.24950354 153.83137582 -53.27149527 163.93870767 -52.04296875 174.5859375 C-51.75297588 178.26234048 -51.59831013 181.93836996 -51.5 185.625 C-38.53605643 172.33769276 -29.45397698 156.08573456 -29.29467773 137.17260742 C-29.28477814 136.4403595 -29.27487854 135.70811157 -29.26467896 134.95367432 C-29.23322375 132.54597143 -29.20837011 130.13824884 -29.18359375 127.73046875 C-29.1630104 126.05609133 -29.14201357 124.38171895 -29.12062073 122.70735168 C-29.06554262 118.30978484 -29.01607071 113.91217221 -28.96777344 109.51452637 C-28.91745401 105.02331488 -28.86182255 100.53216953 -28.80664062 96.04101562 C-28.69923359 87.23573307 -28.59775018 78.43039503 -28.5 69.625 C-29.34183838 69.63023682 -30.18367676 69.63547363 -31.05102539 69.64086914 C-34.20255273 69.65800762 -37.35405614 69.67049696 -40.50561523 69.67993164 C-41.86434719 69.68493113 -43.22307385 69.69173291 -44.58178711 69.70043945 C-46.54538585 69.71269842 -48.50902541 69.71773487 -50.47265625 69.72265625 C-51.65093994 69.72789307 -52.82922363 69.73312988 -54.04321289 69.73852539 C-57.63358915 69.62061276 -60.98407594 69.37700736 -64.5 68.625 C-67.02227622 64.84158567 -67.09207941 61.99782745 -66.5 57.625 C-63.39206639 46.40275696 -63.39206639 46.40275696 -59.5 43.625 C-56.90251352 43.43324178 -54.57078069 43.41419747 -51.98828125 43.55078125 C-51.26005661 43.57722214 -50.53183197 43.60366302 -49.78153992 43.63090515 C-47.45768728 43.71861505 -45.13540721 43.82777715 -42.8125 43.9375 C-41.23638431 44.00076468 -39.66021181 44.06263055 -38.08398438 44.12304688 C-34.22180981 44.27414624 -30.3609072 44.44448923 -26.5 44.625 C-26.51160156 43.47386719 -26.52320313 42.32273438 -26.53515625 41.13671875 C-26.59514153 32.56155049 -26.52765992 24.00449586 -26.125 15.4375 C-26.09414307 14.67332764 -26.06328613 13.90915527 -26.03149414 13.12182617 C-25.76458978 8.05952166 -25.13210352 3.44233781 -23.5 -1.375 C-17.4275165 -6.37052595 -6.72314005 -2.05023843 0 0 Z M92.1640625 106.5078125 C77.66631032 124.95330941 78.53630271 157.91688296 80.9609375 179.65625 C82.33374439 189.00870042 85.35106062 199.44470865 92.75 205.8125 C96.88207064 208.53591019 99.05365229 209.0764419 103.9296875 208.42578125 C111.75353256 205.98826113 116.64261149 199.03948898 120.375 192.125 C127.03940304 177.64878491 128.69957148 162.06525818 128.74023438 146.28466797 C128.74988615 144.02663559 128.78094282 141.76953626 128.8125 139.51171875 C128.90545714 126.8455471 128.19228699 112.68543171 118.94921875 103 C114.66883553 99.261303 111.19955479 98.30450255 105.546875 98.41796875 C99.91320325 98.98778669 95.90316301 102.53810667 92.1640625 106.5078125 Z M235.9375 107.4140625 C221.63713133 129.40865127 220.57257308 160.68344857 225.58984375 185.71875 C227.39634747 193.84119607 230.11336995 201.00476556 236.5 206.625 C240.22097634 208.92413985 242.88995434 208.89682933 247.12890625 208.27734375 C253.44993205 206.53828064 257.34679385 202.29113009 260.75 196.875 C261.69635228 195.14087338 262.61438886 193.39091922 263.5 191.625 C263.86867188 190.91085937 264.23734375 190.19671875 264.6171875 189.4609375 C270.05402663 177.53360824 272.11544154 162.633108 272.5 149.625 C272.53996094 148.31273437 272.57992187 147.00046875 272.62109375 145.6484375 C272.90875854 131.29952155 272.44328657 116.13425852 264.625 103.625 C260.86245855 100.08378451 257.76277748 98.76757165 252.625 98.1875 C245.65471145 98.50674986 240.15702923 101.9791254 235.9375 107.4140625 Z M485.390625 107.99609375 C471.52851791 127.27129638 472.59088942 159.42315803 475.8125 181.9296875 C477.72867198 192.22911187 480.89010605 200.62158107 488.8125 207.6875 C492.94741969 209.12991385 496.3201889 208.85517852 500.5 207.625 C510.49246283 202.68327293 514.79553927 192.10673399 518.40234375 182.14453125 C525.05932109 160.7995612 527.80547323 130.19819748 517.5 109.625 C514.54415635 104.38076127 511.31936278 100.56478759 505.5 98.625 C496.19361303 98.01474512 491.3741971 100.8820376 485.390625 107.99609375 Z M269.53588867 249.39868164 C262.76636292 256.17794889 256.29258946 262.97279695 250.5 270.625 C250.08911133 271.15416016 249.67822266 271.68332031 249.25488281 272.22851562 C240.2030907 283.93307008 231.85866047 297.22877285 233.5 312.625 C234.81467516 317.02728367 236.78366858 319.92614007 240.0625 323.125 C244.97343226 325.26795226 249.22593901 325.49278876 254.5 324.625 C261.66976952 321.71414515 266.02328565 316.39628727 269.0625 309.375 C272.13772405 301.71059544 273.43352865 293.77582247 274.5 285.625 C274.59788818 284.90489746 274.69577637 284.18479492 274.79663086 283.44287109 C275.74392946 275.47956411 275.6112161 267.50414638 275.5625 259.5 C275.55747252 258.05208489 275.55291183 256.60416808 275.54882812 255.15625 C275.53792705 251.64579741 275.52073202 248.13540993 275.5 244.625 C273.22901338 244.625 271.05414093 247.89836226 269.53588867 249.39868164 Z " fill="#252525" transform="translate(452.5,76.375)"/>
<path d="M0 0 C4.21135734 2.44058552 6.4753538 4.4291226 8.69921875 8.86328125 C9.07115555 11.98276043 9.07115555 11.98276043 9.06671143 15.55363464 C9.07161469 16.54320497 9.07161469 16.54320497 9.076617 17.55276662 C9.08388208 19.75701222 9.06975482 21.96059019 9.05566406 24.16479492 C9.05645532 25.74894321 9.05855377 27.3330913 9.06185913 28.91723633 C9.06699561 33.22236015 9.0534415 37.52724502 9.03633213 41.83233047 C9.02124711 46.36187242 9.02246854 50.89141186 9.02166748 55.42097473 C9.01797178 63.04997801 9.00300863 70.67889152 8.98046875 78.30786133 C8.95182512 88.0208995 8.94126413 97.73386458 8.93678665 107.44694042 C8.9327605 115.86715692 8.92025026 124.2873583 8.90643978 132.70756364 C8.90239122 135.374975 8.89943988 138.04238587 8.89664459 140.70979881 C8.87696871 156.70771632 8.85123566 172.6996445 8.26464844 188.6887207 C8.21010939 190.21183884 8.21010939 190.21183884 8.15446854 191.76572704 C7.25309146 212.96165759 2.09943917 233.76279352 -13.76953125 248.84375 C-18.9098849 252.94492722 -24.8987836 257.21889076 -31.6640625 256.51171875 C-32.53417969 256.29773438 -33.40429688 256.08375 -34.30078125 255.86328125 C-34.59640722 248.98608765 -33.31211626 243.50602881 -31.25390625 236.984375 C-26.06976869 219.08385295 -26.96809385 199.55777203 -26.89606428 181.11841893 C-26.88004081 177.52644744 -26.85333384 173.93455205 -26.82803345 170.34263611 C-26.7867745 164.28191534 -26.75224944 158.22118891 -26.72265625 152.16040039 C-26.68190468 143.81642823 -26.62893855 135.47256913 -26.57338285 127.12868428 C-26.33731758 91.3733649 -26.24409077 55.61942132 -26.30078125 19.86328125 C-28.53827976 19.6422695 -28.53827976 19.6422695 -30.48828125 21.80078125 C-31.44018862 22.80819343 -32.37617088 23.8307588 -33.30078125 24.86328125 C-33.81769531 25.43691406 -34.33460937 26.01054688 -34.8671875 26.6015625 C-52.73517172 47.95193808 -57.74467005 74.76826586 -56.30078125 101.86328125 C-55.37060569 110.09110685 -52.32739705 116.17694566 -47.82421875 123.07421875 C-46.15988402 126.12123156 -45.50094498 128.40330812 -45.30078125 131.86328125 C-45.96078125 132.85328125 -46.62078125 133.84328125 -47.30078125 134.86328125 C-54.38612503 135.87547322 -59.38622114 133.70506501 -65.30078125 129.86328125 C-76.19589187 121.4107323 -84.36223973 111.19546797 -86.98046875 97.4140625 C-90.06515276 72.84944471 -79.48194168 48.09499034 -64.77539062 28.86914062 C-49.40435303 9.55583938 -25.89595869 -12.79409844 0 0 Z " fill="#252525" transform="translate(123.30078125,77.13671875)"/>
</svg>
